<?xml version="1.0" standalone="no"?>
<!DOCTYPE svg PUBLIC "-//W3C//DTD SVG 20010904//EN"
 "http://www.w3.org/TR/2001/REC-SVG-20010904/DTD/svg10.dtd">
<svg version="1.0" xmlns="http://www.w3.org/2000/svg"
 width="1024.000000pt" height="1024.000000pt" viewBox="0 0 1024.000000 1024.000000"
 preserveAspectRatio="xMidYMid meet">

<g transform="translate(0.000000,1024.000000) scale(0.100000,-0.100000)"
fill="#000000" stroke="none">
<path d="M0 5120 l0 -5120 5120 0 5120 0 0 5120 0 5120 -5120 0 -5120 0 0
-5120z m5237 3325 c70 -21 165 -87 206 -143 36 -49 320 -539 1319 -2272 90
-157 305 -528 477 -824 172 -297 315 -546 318 -553 4 -11 -80 -13 -462 -11
l-468 3 -197 315 c-226 363 -752 1208 -1085 1742 l-228 367 -72 -117 c-40 -64
-283 -454 -540 -867 -257 -412 -565 -906 -684 -1097 l-216 -348 -468 0 c-257
0 -466 3 -464 8 3 4 176 304 384 667 404 702 589 1022 1128 1955 186 322 387
671 448 775 149 259 200 325 289 371 86 45 219 57 315 29z m62 -2398 c96 -155
329 -530 518 -834 189 -304 343 -555 343 -558 0 -3 -118 -5 -262 -5 l-263 1
-65 87 c-36 48 -152 202 -259 343 l-195 257 -244 -322 c-134 -176 -253 -332
-265 -346 l-22 -25 -258 5 -258 5 523 837 c288 461 525 838 528 838 3 -1 84
-128 179 -283z m-3111 -1907 c19 -52 183 -491 363 -974 181 -484 329 -881 329
-883 0 -2 -104 -2 -232 -1 l-231 3 -54 135 c-29 74 -60 156 -69 183 l-16 47
-391 0 -392 0 -49 -133 c-27 -72 -59 -156 -72 -184 l-23 -53 -230 0 -230 0 30
83 c17 45 69 186 115 312 98 265 90 244 365 980 116 308 212 566 214 573 4 10
63 12 271 10 l267 -3 35 -95z m1360 -692 l2 -788 375 0 375 0 0 -190 0 -190
-595 0 -595 0 0 978 0 977 218 0 217 0 3 -787z m2037 764 c271 -74 440 -233
491 -459 26 -119 16 -302 -23 -415 -69 -198 -216 -326 -448 -389 -69 -19 -113
-23 -332 -27 l-253 -4 0 -319 0 -319 -214 0 -214 0 -5 53 c-2 28 -5 470 -6
980 l-1 928 462 -3 c439 -4 467 -5 543 -26z m1238 -589 c4 -339 7 -780 7 -980
l0 -363 -220 0 -220 0 0 980 0 980 213 0 214 0 6 -617z m851 523 c36 -52 184
-258 328 -458 145 -200 315 -434 376 -520 62 -87 114 -158 115 -158 1 0 1 277
-1 615 l-2 615 215 0 215 0 0 -980 0 -980 -198 0 -198 0 -285 393 c-157 215
-355 489 -440 607 l-154 216 3 -608 3 -608 -218 0 -218 0 0 980 0 980 197 0
196 0 66 -94z"/>
<path d="M1754 3394 c-71 -197 -130 -361 -132 -366 -2 -4 119 -8 268 -8 l271
0 -7 23 c-10 32 -264 701 -268 704 -2 2 -61 -157 -132 -353z"/>
<path d="M5020 3575 l0 -287 208 4 c190 3 211 5 257 26 103 47 165 143 165
255 0 120 -47 200 -146 248 l-69 34 -207 4 -208 3 0 -287z"/>
</g>
</svg>
