<?xml version="1.0" standalone="no"?>
<!DOCTYPE svg PUBLIC "-//W3C//DTD SVG 20010904//EN"
 "http://www.w3.org/TR/2001/REC-SVG-20010904/DTD/svg10.dtd">
<svg version="1.0" xmlns="http://www.w3.org/2000/svg"
 width="1024.000000pt" height="1024.000000pt" viewBox="0 0 1024.000000 1024.000000"
 preserveAspectRatio="xMidYMid meet">

<g transform="translate(0.000000,1024.000000) scale(0.100000,-0.100000)"
fill="#000000" stroke="none">
<path d="M4975 8334 c-105 -24 -190 -70 -266 -144 -53 -52 -90 -106 -184 -265
-65 -110 -162 -274 -215 -365 -199 -337 -338 -573 -503 -855 -93 -159 -232
-393 -307 -520 -75 -126 -231 -387 -345 -580 -114 -192 -284 -477 -377 -633
-93 -155 -176 -298 -184 -317 -17 -42 -18 -79 -1 -92 15 -12 917 -27 932 -16
10 8 130 191 255 388 106 169 647 1013 868 1355 80 124 184 286 232 360 48 74
117 181 153 238 47 72 72 102 86 102 21 0 10 16 574 -860 378 -585 670 -1042
850 -1326 76 -121 147 -231 156 -243 l17 -23 464 9 c520 9 494 5 474 81 -6 21
-117 218 -249 437 -131 220 -364 612 -518 870 -154 259 -306 513 -337 565 -31
52 -165 280 -297 505 -732 1250 -682 1171 -798 1243 -114 71 -179 92 -310 97
-69 3 -122 0 -170 -11z"/>
<path d="M5093 6082 c-10 -10 -123 -176 -251 -368 -129 -192 -352 -524 -497
-739 -146 -215 -264 -400 -265 -412 l0 -23 284 0 285 0 99 133 c261 347 345
452 361 452 11 0 61 -57 127 -143 60 -79 158 -207 217 -285 59 -78 114 -145
122 -150 8 -4 141 -6 297 -5 248 3 283 5 286 19 3 14 -105 180 -383 589 -62
91 -226 334 -365 540 -139 206 -259 383 -268 393 -19 22 -28 21 -49 -1z"/>
<path d="M2000 3991 c-5 -11 -100 -257 -209 -548 -110 -290 -254 -671 -320
-846 -96 -253 -119 -323 -110 -338 9 -18 23 -19 199 -19 211 0 207 -1 234 72
9 24 34 90 55 148 l39 105 328 0 328 0 58 -154 c31 -85 63 -158 70 -162 7 -5
97 -9 199 -9 209 0 218 3 201 62 -8 28 -113 308 -387 1033 -29 77 -96 254
-149 394 -53 139 -101 260 -107 267 -9 11 -55 14 -215 14 -191 0 -204 -1 -214
-19z m238 -553 c5 -7 14 -29 20 -48 5 -19 44 -131 86 -249 42 -117 76 -218 76
-222 0 -10 -403 -13 -413 -3 -3 3 -2 14 4 23 5 9 50 123 99 255 50 131 93 242
96 247 7 13 20 11 32 -3z"/>
<path d="M3327 4003 c-4 -3 -7 -397 -7 -875 l0 -868 26 -10 c31 -12 1063 -13
1082 -1 9 6 12 49 10 182 l-3 174 -339 3 c-224 1 -344 6 -352 13 -11 9 -13
145 -13 689 0 374 -2 684 -6 690 -7 11 -387 15 -398 3z"/>
<path d="M4723 3999 c-10 -10 -13 -198 -13 -870 0 -766 2 -859 16 -873 13 -13
45 -16 190 -16 102 0 183 4 195 10 18 10 19 24 19 274 0 199 3 266 13 274 7 6
106 12 242 14 194 4 242 8 307 26 114 31 182 67 254 134 102 96 149 211 161
393 16 266 -80 448 -292 551 -165 80 -210 86 -675 91 -318 3 -408 2 -417 -8z
m785 -363 c108 -29 163 -97 170 -210 6 -97 -10 -151 -62 -202 -63 -63 -115
-75 -317 -72 l-164 3 -3 235 c-1 129 0 240 2 247 8 19 303 18 374 -1z"/>
<path d="M6376 3994 c-3 -9 -6 -402 -6 -874 0 -856 0 -859 20 -870 14 -7 85
-10 206 -8 151 2 186 6 194 18 15 24 13 1723 -2 1738 -9 9 -69 12 -209 12
-170 0 -198 -2 -203 -16z"/>
<path d="M7157 4003 c-4 -3 -7 -397 -7 -874 0 -848 0 -869 19 -879 11 -6 90
-10 185 -10 137 0 167 3 180 16 15 14 16 74 16 535 0 285 3 520 7 521 4 2 96
-127 203 -285 297 -438 512 -749 532 -769 17 -17 36 -19 203 -18 150 1 188 4
200 17 13 12 15 125 15 872 0 653 -3 860 -12 869 -14 14 -354 17 -375 4 -10
-6 -13 -132 -15 -552 -2 -390 -6 -544 -14 -547 -6 -2 -61 72 -121 164 -322
491 -608 919 -621 931 -17 13 -382 18 -395 5z"/>
</g>
</svg>
