<svg width="24.5" height="24" xmlns="http://www.w3.org/2000/svg" viewBox="0 0 24.5 24"><path fill-rule="evenodd" clip-rule="evenodd" d="M12.213 0C5.46 0 0 5.5 0 12.304a12.29 12.29 0 0 0 8.351 11.672c0.607 0.122 0.829 -0.265 0.829 -0.591 0 -0.285 -0.02 -1.263 -0.02 -2.282 -3.397 0.734 -4.105 -1.467 -4.105 -1.467C4.509 18.21 3.7 17.844 3.7 17.844c-1.112 -0.754 0.081 -0.754 0.081 -0.754 1.234 0.082 1.881 1.263 1.881 1.263 1.092 1.874 2.851 1.345 3.559 1.018 0.101 -0.794 0.425 -1.345 0.768 -1.65 -2.71 -0.285 -5.561 -1.345 -5.561 -6.071 0 -1.345 0.485 -2.445 1.254 -3.3 -0.121 -0.305 -0.546 -1.569 0.121 -3.26 0 0 1.031 -0.326 3.357 1.263a11.8 11.8 0 0 1 3.054 -0.407c1.031 0 2.083 0.143 3.053 0.407 2.325 -1.589 3.357 -1.263 3.357 -1.263 0.667 1.691 0.242 2.954 0.121 3.26 0.789 0.856 1.254 1.956 1.254 3.3 0 4.726 -2.851 5.765 -5.581 6.071 0.445 0.387 0.829 1.12 0.829 2.281 0 1.65 -0.02 2.974 -0.02 3.381 0 0.326 0.223 0.713 0.829 0.591a12.295 12.295 0 0 0 8.351 -11.673C24.427 5.5 18.947 0 12.213 0" fill="#fff"/></svg>